{
  "source": "C:\\Users\\Peter\\Desktop\\stuff\\MIUN\\quantitative_research\\video_compression\\videos\\UVG\\HoneyBee_1920x1080_120fps_420_8bit_YUV.y4m",
  "output": "C:\\Users\\Peter\\Desktop\\stuff\\MIUN\\quantitative_research\\video_compression\\compressed_videos\\UVG\\av1\\12\\HoneyBee_1920x1080_120fps_420_8bit_YUV_av1.mkv",
  "codec": "av1",
  "ok": "[yuv4mpegpipe @ 00000162e98954c0] Stream #0: not enough frames to estimate rate; consider increasing probesize\nInput #0, yuv4mpegpipe, from 'C:\\Users\\Peter\\Desktop\\stuff\\MIUN\\quantitative_research\\video_compression\\videos\\UVG\\HoneyBee_1920x1080_120fps_420_8bit_YUV.y4m':\n  Duration: 00:00:05.00, start: 0.000000, bitrate: 2985989 kb/s\n  Stream #0:0: Video: rawvideo (I420 / 0x30323449), yuv420p(progressive), 1920x1080, 120 fps, 120 tbr, 120 tbn\n[out#0/matroska @ 00000162e98993c0] Codec AVOption b:a (set bitrate (in bits/s)) has not been used for any stream. The most likely reason is either wrong type (e.g. a video option with no video streams) or that it is a private option of some decoder which was not actually used for any stream.\nStream mapping:\n  Stream #0:0 -> #0:0 (rawvideo (native) -> av1 (libsvtav1))\nPress [q] to stop, [?] for help\nSvt[info]: -------------------------------------------\nSvt[info]: SVT [version]:\tSVT-AV1 Encoder Lib v3.1.0-19-g6ecfe8ec\nSvt[info]: SVT [build]  :\tGCC 15.2.0\t 64 bit\nSvt[info]: LIB Build date: Aug 17 2025 11:37:13\nSvt[info]: -------------------------------------------\n[libsvtav1 @ 00000162e989c500] Specified chroma sample location center is unsupported on the AV1 bit stream level. Usage of a container that allows passing this information - such as Matroska - is recommended.\nSvt[info]: Level of Parallelism: 5\nSvt[info]: Number of PPCS 93\nSvt[info]: [asm level on system : up to avx2]\nSvt[info]: [asm level selected : up to avx2]\nSvt[info]: -------------------------------------------\nSvt[info]: SVT [config]: main profile\ttier (auto)\tlevel (auto)\nSvt[info]: SVT [config]: width / height / fps numerator / fps denominator \t\t: 1920 / 1080 / 120 / 1\nSvt[info]: SVT [config]: bit-depth / color format \t\t\t\t\t: 8 / YUV420\nSvt[info]: SVT [config]: preset / tune / pred struct \t\t\t\t\t: 4 / PSNR / random access\nSvt[info]: SVT [config]: gop size / mini-gop size / key-frame type \t\t\t: 641 / 16 / key frame\nSvt[info]: SVT [config]: BRC mode / target bitrate (kbps)\t\t\t\t: VBR / 12000 \nSvt[info]: SVT [config]: AQ mode / Variance Boost \t\t\t\t\t: 2 / 0\nSvt[info]: SVT [config]: sharpness / luminance-based QP bias \t\t\t\t: 0 / 0\nSvt[info]: SVT [config]: QP scale compress strength \t\t\t\t\t: 0\nSvt[info]: -------------------------------------------\nOutput #0, matroska, to 'C:\\Users\\Peter\\Desktop\\stuff\\MIUN\\quantitative_research\\video_compression\\compressed_videos\\UVG\\av1\\12\\HoneyBee_1920x1080_120fps_420_8bit_YUV_av1.mkv':\n  Metadata:\n    encoder         : Lavf62.3.100\n  Stream #0:0: Video: av1 (AV01 / 0x31305641), yuv420p(tv, progressive), 1920x1080, q=2-31, 12000 kb/s, 120 fps, 1k tbn\n    Metadata:\n      encoder         : Lavc62.11.100 libsvtav1\n    Side data:\n      cpb: bitrate max/min/avg: 0/0/12000000 buffer size: 12000000 vbv_delay: N/A\nframe=    0 fps=0.0 q=0.0 size=       0KiB time=N/A bitrate=N/A speed=N/A elapsed=0:00:02.18    \nframe=    0 fps=0.0 q=0.0 size=       0KiB time=N/A bitrate=N/A speed=N/A elapsed=0:00:02.83    \nframe=    0 fps=0.0 q=0.0 size=       0KiB time=N/A bitrate=N/A speed=N/A elapsed=0:00:03.36    \nframe=    0 fps=0.0 q=0.0 size=       0KiB time=N/A bitrate=N/A speed=N/A elapsed=0:00:03.89    \nframe=    0 fps=0.0 q=0.0 size=       0KiB time=N/A bitrate=N/A speed=N/A elapsed=0:00:04.42    \nframe=    0 fps=0.0 q=0.0 size=       0KiB time=N/A bitrate=N/A speed=N/A elapsed=0:00:04.98    \nframe=    0 fps=0.0 q=0.0 size=       0KiB time=N/A bitrate=N/A speed=N/A elapsed=0:00:05.53    \nframe=    0 fps=0.0 q=0.0 size=       0KiB time=N/A bitrate=N/A speed=N/A elapsed=0:00:06.08    \nframe=    0 fps=0.0 q=0.0 size=       0KiB time=N/A bitrate=N/A speed=N/A elapsed=0:00:06.63    \nframe=    0 fps=0.0 q=0.0 size=       0KiB time=N/A bitrate=N/A speed=N/A elapsed=0:00:07.19    \nframe=    0 fps=0.0 q=0.0 size=       0KiB time=N/A bitrate=N/A speed=N/A elapsed=0:00:07.75    \nframe=    0 fps=0.0 q=0.0 size=       0KiB time=N/A bitrate=N/A speed=N/A elapsed=0:00:08.30    \nframe=    0 fps=0.0 q=0.0 size=       0KiB time=N/A bitrate=N/A speed=N/A elapsed=0:00:08.85    \nframe=    0 fps=0.0 q=0.0 size=       0KiB time=N/A bitrate=N/A speed=N/A elapsed=0:00:09.41    \nframe=    0 fps=0.0 q=0.0 size=       0KiB time=N/A bitrate=N/A speed=N/A elapsed=0:00:09.95    \nframe=    0 fps=0.0 q=0.0 size=       0KiB time=N/A bitrate=N/A speed=N/A elapsed=0:00:10.51    \nframe=    0 fps=0.0 q=0.0 size=       0KiB time=N/A bitrate=N/A speed=N/A elapsed=0:00:11.07    \nframe=    0 fps=0.0 q=0.0 size=       0KiB time=N/A bitrate=N/A speed=N/A elapsed=0:00:11.62    \nframe=    0 fps=0.0 q=0.0 size=       0KiB time=N/A bitrate=N/A speed=N/A elapsed=0:00:12.19    \nframe=    0 fps=0.0 q=0.0 size=       0KiB time=N/A bitrate=N/A speed=N/A elapsed=0:00:12.73    \nframe=    0 fps=0.0 q=0.0 size=       0KiB time=N/A bitrate=N/A speed=N/A elapsed=0:00:13.28    \nframe=    0 fps=0.0 q=0.0 size=       0KiB time=N/A bitrate=N/A speed=N/A elapsed=0:00:13.82    \nframe=    0 fps=0.0 q=0.0 size=       0KiB time=N/A bitrate=N/A speed=N/A elapsed=0:00:14.37    \nframe=    0 fps=0.0 q=0.0 size=       0KiB time=N/A bitrate=N/A speed=N/A elapsed=0:00:14.93    \nframe=    0 fps=0.0 q=0.0 size=       0KiB time=N/A bitrate=N/A speed=N/A elapsed=0:00:15.49    \nframe=    0 fps=0.0 q=0.0 size=       0KiB time=N/A bitrate=N/A speed=N/A elapsed=0:00:16.04    \nframe=    0 fps=0.0 q=0.0 size=       0KiB time=N/A bitrate=N/A speed=N/A elapsed=0:00:16.61    \nframe=    0 fps=0.0 q=0.0 size=       0KiB time=N/A bitrate=N/A speed=N/A elapsed=0:00:17.15    \nframe=    0 fps=0.0 q=0.0 size=       0KiB time=N/A bitrate=N/A speed=N/A elapsed=0:00:17.70    \nframe=    0 fps=0.0 q=0.0 size=       0KiB time=N/A bitrate=N/A speed=N/A elapsed=0:00:18.26    \nframe=    0 fps=0.0 q=0.0 size=       0KiB time=N/A bitrate=N/A speed=N/A elapsed=0:00:18.82    \nframe=    0 fps=0.0 q=0.0 size=       0KiB time=N/A bitrate=N/A speed=N/A elapsed=0:00:19.40    \nframe=    0 fps=0.0 q=0.0 size=       0KiB time=N/A bitrate=N/A speed=N/A elapsed=0:00:19.96    \nframe=    0 fps=0.0 q=0.0 size=       0KiB time=N/A bitrate=N/A speed=N/A elapsed=0:00:20.51    \nframe=    0 fps=0.0 q=0.0 size=       0KiB time=N/A bitrate=N/A speed=N/A elapsed=0:00:21.06    \nframe=    0 fps=0.0 q=0.0 size=       0KiB time=N/A bitrate=N/A speed=N/A elapsed=0:00:21.63    \nframe=    0 fps=0.0 q=0.0 size=       0KiB time=N/A bitrate=N/A speed=N/A elapsed=0:00:22.20    \nframe=    0 fps=0.0 q=0.0 size=       0KiB time=N/A bitrate=N/A speed=N/A elapsed=0:00:22.79    \nframe=    0 fps=0.0 q=0.0 size=       0KiB time=N/A bitrate=N/A speed=N/A elapsed=0:00:23.35    \nframe=    0 fps=0.0 q=0.0 size=       0KiB time=N/A bitrate=N/A speed=N/A elapsed=0:00:23.91    \nframe=    0 fps=0.0 q=0.0 size=       0KiB time=N/A bitrate=N/A speed=N/A elapsed=0:00:24.47    \nframe=    0 fps=0.0 q=0.0 size=       0KiB time=N/A bitrate=N/A speed=N/A elapsed=0:00:25.00    \nframe=    0 fps=0.0 q=0.0 size=       0KiB time=N/A bitrate=N/A speed=N/A elapsed=0:00:25.55    \nframe=    0 fps=0.0 q=0.0 size=       0KiB time=N/A bitrate=N/A speed=N/A elapsed=0:00:26.08    \nframe=    1 fps=0.0 q=4.0 size=       1KiB time=00:00:00.00 bitrate=N/A speed=   0x elapsed=0:00:26.62    \nframe=    1 fps=0.0 q=4.0 size=       1KiB time=00:00:00.00 bitrate=N/A speed=   0x elapsed=0:00:27.16    \nframe=    1 fps=0.0 q=4.0 size=       1KiB time=00:00:00.00 bitrate=N/A speed=   0x elapsed=0:00:27.72    \nframe=    1 fps=0.0 q=4.0 size=       1KiB time=00:00:00.00 bitrate=N/A speed=   0x elapsed=0:00:28.28    \nframe=    1 fps=0.0 q=4.0 size=       1KiB time=00:00:00.00 bitrate=N/A speed=   0x elapsed=0:00:28.83    \nframe=    1 fps=0.0 q=4.0 size=       1KiB time=00:00:00.00 bitrate=N/A speed=   0x elapsed=0:00:29.36    \nframe=    1 fps=0.0 q=4.0 size=       1KiB time=00:00:00.00 bitrate=N/A speed=   0x elapsed=0:00:29.90    \nframe=    1 fps=0.0 q=4.0 size=       1KiB time=00:00:00.00 bitrate=N/A speed=   0x elapsed=0:00:30.46    \nframe=    1 fps=0.0 q=4.0 size=       1KiB time=00:00:00.00 bitrate=N/A speed=   0x elapsed=0:00:31.02    \nframe=    3 fps=0.1 q=26.0 size=       1KiB time=00:00:00.01 bitrate= 268.8kbits/s speed=0.000528x elapsed=0:00:31.58    \nframe=    4 fps=0.1 q=31.0 size=       1KiB time=00:00:00.02 bitrate= 179.2kbits/s speed=0.000778x elapsed=0:00:32.15    \nframe=    6 fps=0.2 q=26.0 size=       1KiB time=00:00:00.04 bitrate= 107.5kbits/s speed=0.00127x elapsed=0:00:32.69    \nframe=    7 fps=0.2 q=26.0 size=       1KiB time=00:00:00.05 bitrate=  89.6kbits/s speed=0.0015x elapsed=0:00:33.23    \nframe=    9 fps=0.3 q=20.0 size=       1KiB time=00:00:00.05 bitrate=  76.8kbits/s speed=0.00173x elapsed=0:00:33.80    \nframe=   10 fps=0.3 q=24.0 size=       1KiB time=00:00:00.07 bitrate=  59.7kbits/s speed=0.00218x elapsed=0:00:34.35    \nframe=   12 fps=0.3 q=24.0 size=       1KiB time=00:00:00.09 bitrate=  48.9kbits/s speed=0.00263x elapsed=0:00:34.89    \nframe=   13 fps=0.4 q=24.0 size=       1KiB time=00:00:00.10 bitrate=  44.8kbits/s speed=0.00282x elapsed=0:00:35.43    \nframe=   13 fps=0.4 q=24.0 size=       1KiB time=00:00:00.10 bitrate=  44.8kbits/s speed=0.00278x elapsed=0:00:35.97    \nframe=   13 fps=0.4 q=24.0 size=       1KiB time=00:00:00.10 bitrate=  44.8kbits/s speed=0.00274x elapsed=0:00:36.49    \nframe=   13 fps=0.4 q=24.0 size=       1KiB time=00:00:00.10 bitrate=  44.8kbits/s speed=0.0027x elapsed=0:00:37.03    \nframe=   13 fps=0.3 q=24.0 size=       1KiB time=00:00:00.10 bitrate=  44.8kbits/s speed=0.00266x elapsed=0:00:37.56    \nframe=   14 fps=0.4 q=24.0 size=       1KiB time=00:00:00.10 bitrate=  41.4kbits/s speed=0.00284x elapsed=0:00:38.10    \nframe=   14 fps=0.4 q=24.0 size=       1KiB time=00:00:00.10 bitrate=  41.4kbits/s speed=0.0028x elapsed=0:00:38.65    \nframe=   15 fps=0.4 q=24.0 size=       1KiB time=00:00:00.11 bitrate=  38.4kbits/s speed=0.00298x elapsed=0:00:39.18    \nframe=   16 fps=0.4 q=24.0 size=       1KiB time=00:00:00.11 bitrate=  38.4kbits/s speed=0.00294x elapsed=0:00:39.72    \nframe=   17 fps=0.4 q=7.0 size=       1KiB time=00:00:00.12 bitrate=  35.8kbits/s speed=0.0031x elapsed=0:00:40.29    \nframe=   18 fps=0.4 q=18.0 size=       1KiB time=00:00:00.14 bitrate=  31.6kbits/s speed=0.00347x elapsed=0:00:40.85    \nframe=   19 fps=0.5 q=18.0 size=       1KiB time=00:00:00.15 bitrate=  29.9kbits/s speed=0.00362x elapsed=0:00:41.40    \nframe=   20 fps=0.5 q=18.0 size=       1KiB time=00:00:00.15 bitrate=  28.3kbits/s speed=0.00377x elapsed=0:00:41.96    \nframe=   22 fps=0.5 q=18.0 size=       1KiB time=00:00:00.17 bitrate=  25.6kbits/s speed=0.00412x elapsed=0:00:42.50    \nframe=   23 fps=0.5 q=18.0 size=       1KiB time=00:00:00.18 bitrate=  24.4kbits/s speed=0.00426x elapsed=0:00:43.06    \nframe=   24 fps=0.6 q=18.0 size=       1KiB time=00:00:00.18 bitrate=  24.4kbits/s speed=0.0042x elapsed=0:00:43.61    \nframe=   25 fps=0.6 q=14.0 size=       1KiB time=00:00:00.20 bitrate=  22.4kbits/s speed=0.00453x elapsed=0:00:44.16    \nframe=   26 fps=0.6 q=17.0 size=       1KiB time=00:00:00.20 bitrate=  21.5kbits/s speed=0.00466x elapsed=0:00:44.74    \nframe=   28 fps=0.6 q=17.0 size=       1KiB time=00:00:00.21 bitrate=  20.7kbits/s speed=0.00478x elapsed=0:00:45.31    \nframe=   29 fps=0.6 q=16.0 size=       1KiB time=00:00:00.23 bitrate=  19.2kbits/s speed=0.00509x elapsed=0:00:45.85    \nframe=   29 fps=0.6 q=16.0 size=       1KiB time=00:00:00.23 bitrate=  19.2kbits/s speed=0.00503x elapsed=0:00:46.40    \nframe=   29 fps=0.6 q=16.0 size=       1KiB time=00:00:00.23 bitrate=  19.2kbits/s speed=0.00497x elapsed=0:00:46.93    \nframe=   29 fps=0.6 q=16.0 size=       1KiB time=00:00:00.23 bitrate=  19.2kbits/s speed=0.00491x elapsed=0:00:47.47    \nframe=   29 fps=0.6 q=16.0 size=       1KiB time=00:00:00.23 bitrate=  19.2kbits/s speed=0.00486x elapsed=0:00:48.01    \nframe=   29 fps=0.6 q=16.0 size=       1KiB time=00:00:00.23 bitrate=  19.2kbits/s speed=0.00481x elapsed=0:00:48.55    \nframe=   29 fps=0.6 q=16.0 size=       1KiB time=00:00:00.23 bitrate=  19.2kbits/s speed=0.00475x elapsed=0:00:49.08    \nframe=   29 fps=0.6 q=16.0 size=       1KiB time=00:00:00.23 bitrate=  19.2kbits/s speed=0.0047x elapsed=0:00:49.61    \nframe=   30 fps=0.6 q=16.0 size=       1KiB time=00:00:00.23 bitrate=  19.2kbits/s speed=0.00465x elapsed=0:00:50.13    \nframe=   30 fps=0.6 q=16.0 size=       1KiB time=00:00:00.24 bitrate=  18.5kbits/s speed=0.00477x elapsed=0:00:50.66    \nframe=   31 fps=0.6 q=16.0 size=       1KiB time=00:00:00.25 bitrate=  17.9kbits/s speed=0.00488x elapsed=0:00:51.19    \nframe=   32 fps=0.6 q=16.0 size=       1KiB time=00:00:00.25 bitrate=  17.3kbits/s speed=0.00499x elapsed=0:00:51.72    \nframe=   33 fps=0.6 q=5.0 size=       1KiB time=00:00:00.26 bitrate=  16.8kbits/s speed=0.0051x elapsed=0:00:52.30    \nframe=   34 fps=0.6 q=12.0 size=       1KiB time=00:00:00.27 bitrate=  16.3kbits/s speed=0.0052x elapsed=0:00:52.86    \nframe=   35 fps=0.7 q=11.0 size=       1KiB time=00:00:00.28 bitrate=  15.8kbits/s speed=0.00531x elapsed=0:00:53.39    \nframe=   36 fps=0.7 q=12.0 size=       1KiB time=00:00:00.29 bitrate=  15.4kbits/s speed=0.00541x elapsed=0:00:53.94    \nframe=   39 fps=0.7 q=11.0 size=       1KiB time=00:00:00.31 bitrate=  14.1kbits/s speed=0.00581x elapsed=0:00:54.48    \nframe=   40 fps=0.7 q=13.0 size=       1KiB time=00:00:00.32 bitrate=  13.8kbits/s speed=0.00591x elapsed=0:00:55.02    \nframe=   40 fps=0.7 q=13.0 size=       1KiB time=00:00:00.32 bitrate=  13.8kbits/s speed=0.00585x elapsed=0:00:55.56    \nframe=   42 fps=0.7 q=17.0 size=       1KiB time=00:00:00.33 bitrate=  13.4kbits/s speed=0.00594x elapsed=0:00:56.09    \nframe=   43 fps=0.8 q=22.0 size=       1KiB time=00:00:00.35 bitrate=  12.8kbits/s speed=0.00618x elapsed=0:00:56.62    \nframe=   43 fps=0.8 q=22.0 size=       1KiB time=00:00:00.35 bitrate=  12.8kbits/s speed=0.00612x elapsed=0:00:57.16    \nframe=   44 fps=0.8 q=9.0 size=       1KiB time=00:00:00.35 bitrate=  12.5kbits/s speed=0.00621x elapsed=0:00:57.69    \nframe=   46 fps=0.8 q=31.0 size=       1KiB time=00:00:00.37 bitrate=  11.9kbits/s speed=0.00644x elapsed=0:00:58.24    \nframe=   46 fps=0.8 q=31.0 size=       1KiB time=00:00:00.37 bitrate=  11.9kbits/s speed=0.00638x elapsed=0:00:58.78    \nframe=   46 fps=0.8 q=31.0 size=       1KiB time=00:00:00.37 bitrate=  11.9kbits/s speed=0.00632x elapsed=0:00:59.33    \nframe=   47 fps=0.8 q=9.0 size=       1KiB time=00:00:00.38 bitrate=  11.7kbits/s speed=0.0064x elapsed=0:00:59.87    \nframe=   48 fps=0.8 q=14.0 size=       1KiB time=00:00:00.39 bitrate=  11.4kbits/s speed=0.00648x elapsed=0:01:00.41    \nframe=   50 fps=0.8 q=15.0 size=       1KiB time=00:00:00.40 bitrate=  11.0kbits/s speed=0.0067x elapsed=0:01:00.96    \nframe=   50 fps=0.8 q=15.0 size=       1KiB time=00:00:00.40 bitrate=  11.0kbits/s speed=0.00664x elapsed=0:01:01.51    \nframe=   53 fps=0.9 q=9.0 size=       1KiB time=00:00:00.42 bitrate=  10.5kbits/s speed=0.00685x elapsed=0:01:02.06    \nframe=   53 fps=0.8 q=9.0 size=       1KiB time=00:00:00.43 bitrate=  10.3kbits/s speed=0.00692x elapsed=0:01:02.61    \nframe=   54 fps=0.9 q=10.0 size=       1KiB time=00:00:00.44 bitrate=  10.1kbits/s speed=0.00699x elapsed=0:01:03.16    \nframe=   55 fps=0.9 q=10.0 size=       1KiB time=00:00:00.45 bitrate=  10.0kbits/s speed=0.00706x elapsed=0:01:03.71    \nframe=   57 fps=0.9 q=9.0 size=       1KiB time=00:00:00.46 bitrate=   9.6kbits/s speed=0.00726x elapsed=0:01:04.26    \nframe=   59 fps=0.9 q=25.0 size=       1KiB time=00:00:00.48 bitrate=   9.3kbits/s speed=0.00746x elapsed=0:01:04.80    \nframe=   60 fps=0.9 q=17.0 size=       1KiB time=00:00:00.49 bitrate=   9.1kbits/s speed=0.00752x elapsed=0:01:05.34    \nframe=   60 fps=0.9 q=17.0 size=       1KiB time=00:00:00.49 bitrate=   9.1kbits/s speed=0.00746x elapsed=0:01:05.87    \nframe=   60 fps=0.9 q=17.0 size=       1KiB time=00:00:00.49 bitrate=   9.1kbits/s speed=0.0074x elapsed=0:01:06.41    \nframe=   60 fps=0.9 q=17.0 size=       1KiB time=00:00:00.49 bitrate=   9.1kbits/s speed=0.00735x elapsed=0:01:06.93    \nframe=   60 fps=0.9 q=17.0 size=       1KiB time=00:00:00.49 bitrate=   9.1kbits/s speed=0.00729x elapsed=0:01:07.47    \nframe=   60 fps=0.9 q=17.0 size=       1KiB time=00:00:00.49 bitrate=   9.1kbits/s speed=0.00723x elapsed=0:01:08.00    \nframe=   60 fps=0.9 q=17.0 size=       1KiB time=00:00:00.49 bitrate=   9.1kbits/s speed=0.00718x elapsed=0:01:08.51    \nframe=   60 fps=0.9 q=17.0 size=       1KiB time=00:00:00.49 bitrate=   9.1kbits/s speed=0.00712x elapsed=0:01:09.03    \nframe=   61 fps=0.9 q=19.0 size=       1KiB time=00:00:00.50 bitrate=   9.0kbits/s speed=0.00719x elapsed=0:01:09.57    \nframe=   61 fps=0.9 q=19.0 size=       1KiB time=00:00:00.50 bitrate=   9.0kbits/s speed=0.00713x elapsed=0:01:10.11    \nframe=   62 fps=0.9 q=11.0 size=       1KiB time=00:00:00.50 bitrate=   8.8kbits/s speed=0.00719x elapsed=0:01:10.65    \nframe=   62 fps=0.9 q=11.0 size=       1KiB time=00:00:00.50 bitrate=   8.8kbits/s speed=0.00714x elapsed=0:01:11.18    \nframe=   62 fps=0.9 q=11.0 size=       1KiB time=00:00:00.50 bitrate=   8.8kbits/s speed=0.00709x elapsed=0:01:11.73    \nframe=   63 fps=0.9 q=14.0 size=       1KiB time=00:00:00.51 bitrate=   8.7kbits/s speed=0.00715x elapsed=0:01:12.27    \nframe=   63 fps=0.9 q=14.0 size=       1KiB time=00:00:00.51 bitrate=   8.7kbits/s speed=0.0071x elapsed=0:01:12.81    \nframe=   64 fps=0.9 q=11.0 size=       1KiB time=00:00:00.52 bitrate=   8.5kbits/s speed=0.00716x elapsed=0:01:13.36    \nframe=   66 fps=0.9 q=9.0 size=       1KiB time=00:00:00.54 bitrate=   8.3kbits/s speed=0.00733x elapsed=0:01:13.89    \nframe=   68 fps=0.9 q=31.0 size=       1KiB time=00:00:00.55 bitrate=   8.0kbits/s speed=0.0075x elapsed=0:01:14.44    \nframe=   69 fps=0.9 q=9.0 size=       1KiB time=00:00:00.56 bitrate=   7.9kbits/s speed=0.00756x elapsed=0:01:14.96    \nframe=   70 fps=0.9 q=18.0 size=       1KiB time=00:00:00.57 bitrate=   7.8kbits/s speed=0.00761x elapsed=0:01:15.50    \nframe=   71 fps=0.9 q=24.0 size=       1KiB time=00:00:00.58 bitrate=   7.7kbits/s speed=0.00767x elapsed=0:01:16.03    \nframe=   73 fps=1.0 q=5.0 size=       1KiB time=00:00:00.60 bitrate=   7.5kbits/s speed=0.00783x elapsed=0:01:16.58    \nframe=   74 fps=1.0 q=15.0 size=       1KiB time=00:00:00.60 bitrate=   7.4kbits/s speed=0.00789x elapsed=0:01:17.12    \nframe=   75 fps=1.0 q=17.0 size=       1KiB time=00:00:00.61 bitrate=   7.3kbits/s speed=0.00794x elapsed=0:01:17.66    \nframe=   77 fps=1.0 q=17.0 size=       1KiB time=00:00:00.63 bitrate=   7.1kbits/s speed=0.0081x elapsed=0:01:18.20    \nframe=   78 fps=1.0 q=10.0 size=       1KiB time=00:00:00.64 bitrate=   7.0kbits/s speed=0.00815x elapsed=0:01:18.73    \nframe=   80 fps=1.0 q=10.0 size=       1KiB time=00:00:00.65 bitrate=   6.8kbits/s speed=0.0083x elapsed=0:01:19.27    \nframe=   82 fps=1.0 q=12.0 size=       1KiB time=00:00:00.67 bitrate=   6.6kbits/s speed=0.00846x elapsed=0:01:19.80    \nframe=   82 fps=1.0 q=12.0 size=       1KiB time=00:00:00.67 bitrate=   6.6kbits/s speed=0.0084x elapsed=0:01:20.34    \nframe=   83 fps=1.0 q=11.0 size=       1KiB time=00:00:00.68 bitrate=   6.6kbits/s speed=0.00845x elapsed=0:01:20.88    \nframe=   85 fps=1.0 q=10.0 size=       1KiB time=00:00:00.70 bitrate=   6.4kbits/s speed=0.0086x elapsed=0:01:21.42    \nframe=   85 fps=1.0 q=10.0 size=       1KiB time=00:00:00.70 bitrate=   6.4kbits/s speed=0.00854x elapsed=0:01:21.95    \nframe=   87 fps=1.1 q=11.0 size=       1KiB time=00:00:00.71 bitrate=   6.3kbits/s speed=0.00869x elapsed=0:01:22.48    \nframe=   88 fps=1.1 q=12.0 size=       1KiB time=00:00:00.72 bitrate=   6.2kbits/s speed=0.00873x elapsed=0:01:23.04    \nframe=   90 fps=1.1 q=17.0 size=       1KiB time=00:00:00.74 bitrate=   6.0kbits/s speed=0.00887x elapsed=0:01:23.58    \nframe=   92 fps=1.1 q=17.0 size=       1KiB time=00:00:00.75 bitrate=   5.9kbits/s speed=0.00901x elapsed=0:01:24.13    \nframe=   92 fps=1.1 q=17.0 size=       1KiB time=00:00:00.75 bitrate=   5.9kbits/s speed=0.00896x elapsed=0:01:24.66    \nframe=   92 fps=1.1 q=17.0 size=       1KiB time=00:00:00.75 bitrate=   5.9kbits/s speed=0.0089x elapsed=0:01:25.20    \nframe=   92 fps=1.1 q=17.0 size=       1KiB time=00:00:00.75 bitrate=   5.9kbits/s speed=0.00884x elapsed=0:01:25.75    \nframe=   92 fps=1.1 q=17.0 size=       1KiB time=00:00:00.75 bitrate=   5.9kbits/s speed=0.00879x elapsed=0:01:26.30    \nframe=   92 fps=1.1 q=17.0 size=       1KiB time=00:00:00.75 bitrate=   5.9kbits/s speed=0.00873x elapsed=0:01:26.85    \nframe=   92 fps=1.1 q=17.0 size=       1KiB time=00:00:00.75 bitrate=   5.9kbits/s speed=0.00868x elapsed=0:01:27.37    \nframe=   92 fps=1.0 q=17.0 size=       1KiB time=00:00:00.75 bitrate=   5.9kbits/s speed=0.00863x elapsed=0:01:27.89    \nframe=   92 fps=1.0 q=17.0 size=       1KiB time=00:00:00.75 bitrate=   5.9kbits/s speed=0.00857x elapsed=0:01:28.43    \nframe=   93 fps=1.0 q=12.0 size=       1KiB time=00:00:00.76 bitrate=   5.8kbits/s speed=0.00862x elapsed=0:01:28.96    \nframe=   93 fps=1.0 q=12.0 size=       1KiB time=00:00:00.76 bitrate=   5.8kbits/s speed=0.00857x elapsed=0:01:29.49    \nframe=   94 fps=1.0 q=13.0 size=       1KiB time=00:00:00.76 bitrate=   5.8kbits/s speed=0.00852x elapsed=0:01:30.03    \nframe=   95 fps=1.0 q=13.0 size=       1KiB time=00:00:00.78 bitrate=   5.7kbits/s speed=0.00865x elapsed=0:01:30.57    \nframe=   96 fps=1.1 q=13.0 size=       1KiB time=00:00:00.79 bitrate=   5.7kbits/s speed=0.00869x elapsed=0:01:31.11    \nframe=   98 fps=1.1 q=20.0 size=       1KiB time=00:00:00.80 bitrate=   5.5kbits/s speed=0.00882x elapsed=0:01:31.66    \nframe=   99 fps=1.1 q=25.0 size=       1KiB time=00:00:00.81 bitrate=   5.5kbits/s speed=0.00886x elapsed=0:01:32.22    \nframe=  101 fps=1.1 q=22.0 size=       1KiB time=00:00:00.83 bitrate=   5.4kbits/s speed=0.00898x elapsed=0:01:32.77    \nframe=  102 fps=1.1 q=18.0 size=       1KiB time=00:00:00.84 bitrate=   5.3kbits/s speed=0.00902x elapsed=0:01:33.32    \nframe=  105 fps=1.1 q=7.0 size=       1KiB time=00:00:00.86 bitrate=   5.2kbits/s speed=0.00923x elapsed=0:01:33.85    \nframe=  107 fps=1.1 q=16.0 size=       1KiB time=00:00:00.88 bitrate=   5.1kbits/s speed=0.00936x elapsed=0:01:34.39    \nframe=  109 fps=1.1 q=13.0 size=       1KiB time=00:00:00.90 bitrate=   5.0kbits/s speed=0.00948x elapsed=0:01:34.92    \nframe=  111 fps=1.2 q=15.0 size=       1KiB time=00:00:00.91 bitrate=   4.9kbits/s speed=0.0096x elapsed=0:01:35.46    \nframe=  114 fps=1.2 q=16.0 size=       1KiB time=00:00:00.93 bitrate=   4.8kbits/s speed=0.00972x elapsed=0:01:36.01    \nframe=  115 fps=1.2 q=16.0 size=       1KiB time=00:00:00.95 bitrate=   4.7kbits/s speed=0.00984x elapsed=0:01:36.53    \nframe=  117 fps=1.2 q=15.0 size=       1KiB time=00:00:00.96 bitrate=   4.6kbits/s speed=0.00996x elapsed=0:01:37.08    \nframe=  118 fps=1.2 q=17.0 size=       1KiB time=00:00:00.97 bitrate=   4.6kbits/s speed=0.00998x elapsed=0:01:37.66    \nframe=  119 fps=1.2 q=16.0 size=       1KiB time=00:00:00.98 bitrate=   4.6kbits/s speed=0.01x elapsed=0:01:38.24    \nframe=  121 fps=1.2 q=14.0 size=       1KiB time=00:00:01.00 bitrate=   4.5kbits/s speed=0.0101x elapsed=0:01:38.80    \nframe=  123 fps=1.2 q=17.0 size=       1KiB time=00:00:01.01 bitrate=   4.4kbits/s speed=0.0102x elapsed=0:01:39.36    \nframe=  124 fps=1.2 q=17.0 size=       1KiB time=00:00:01.02 bitrate=   4.4kbits/s speed=0.0103x elapsed=0:01:39.91    \nframe=  124 fps=1.2 q=17.0 size=       1KiB time=00:00:01.02 bitrate=   4.4kbits/s speed=0.0102x elapsed=0:01:40.46    \nframe=  124 fps=1.2 q=17.0 size=       1KiB time=00:00:01.02 bitrate=   4.4kbits/s speed=0.0101x elapsed=0:01:41.00    \nframe=  124 fps=1.2 q=17.0 size=       1KiB time=00:00:01.02 bitrate=   4.4kbits/s speed=0.0101x elapsed=0:01:41.55    \nframe=  124 fps=1.2 q=17.0 size=       1KiB time=00:00:01.02 bitrate=   4.4kbits/s speed=0.01x elapsed=0:01:42.09    \nframe=  124 fps=1.2 q=17.0 size=       1KiB time=00:00:01.02 bitrate=   4.4kbits/s speed=0.00999x elapsed=0:01:42.62    \nframe=  124 fps=1.2 q=17.0 size=       1KiB time=00:00:01.02 bitrate=   4.4kbits/s speed=0.00994x elapsed=0:01:43.16    \nframe=  124 fps=1.2 q=17.0 size=       1KiB time=00:00:01.02 bitrate=   4.4kbits/s speed=0.00988x elapsed=0:01:43.71    \nframe=  124 fps=1.2 q=17.0 size=       1KiB time=00:00:01.02 bitrate=   4.4kbits/s speed=0.00983x elapsed=0:01:44.25    \nframe=  124 fps=1.2 q=17.0 size=       1KiB time=00:00:01.02 bitrate=   4.4kbits/s speed=0.00978x elapsed=0:01:44.80    \nframe=  124 fps=1.2 q=17.0 size=       1KiB time=00:00:01.02 bitrate=   4.4kbits/s speed=0.00972x elapsed=0:01:45.41    \nframe=  127 fps=1.2 q=17.0 size=       1KiB time=00:00:01.04 bitrate=   4.3kbits/s speed=0.00981x elapsed=0:01:46.20    \nframe=  131 fps=1.2 q=18.0 size=       1KiB time=00:00:01.06 bitrate=   4.2kbits/s speed=0.00996x elapsed=0:01:47.08    \nframe=  134 fps=1.2 q=21.0 size=       1KiB time=00:00:01.10 bitrate=   4.1kbits/s speed=0.0102x elapsed=0:01:47.79    \nframe=  139 fps=1.3 q=20.0 size=       1KiB time=00:00:01.12 bitrate=   4.0kbits/s speed=0.0103x elapsed=0:01:48.74    \nframe=  145 fps=1.3 q=1.0 size=       1KiB time=00:00:01.17 bitrate=   3.8kbits/s speed=0.0107x elapsed=0:01:49.52    \nframe=  151 fps=1.4 q=21.0 size=       1KiB time=00:00:01.24 bitrate=   3.6kbits/s speed=0.0112x elapsed=0:01:50.38    \nframe=  156 fps=1.4 q=22.0 size=       1KiB time=00:00:01.28 bitrate=   3.5kbits/s speed=0.0115x elapsed=0:01:51.16    \nframe=  156 fps=1.4 q=22.0 size=       1KiB time=00:00:01.29 bitrate=   3.5kbits/s speed=0.0115x elapsed=0:01:51.96    \nframe=  156 fps=1.4 q=22.0 size=       1KiB time=00:00:01.29 bitrate=   3.5kbits/s speed=0.0115x elapsed=0:01:52.68    \nframe=  157 fps=1.4 q=20.0 size=       1KiB time=00:00:01.30 bitrate=   3.4kbits/s speed=0.0115x elapsed=0:01:53.43    \nframe=  160 fps=1.4 q=22.0 size=       1KiB time=00:00:01.31 bitrate=   3.4kbits/s speed=0.0115x elapsed=0:01:54.25    \nframe=  165 fps=1.4 q=16.0 size=       1KiB time=00:00:01.35 bitrate=   3.3kbits/s speed=0.0118x elapsed=0:01:55.15    \nframe=  169 fps=1.5 q=13.0 size=       1KiB time=00:00:01.38 bitrate=   3.2kbits/s speed=0.0119x elapsed=0:01:55.93    \nframe=  172 fps=1.5 q=19.0 size=       1KiB time=00:00:01.42 bitrate=   3.1kbits/s speed=0.0122x elapsed=0:01:56.83    \nframe=  172 fps=1.5 q=19.0 size=       1KiB time=00:00:01.42 bitrate=   3.1kbits/s speed=0.0121x elapsed=0:01:57.62    \nframe=  172 fps=1.4 q=19.0 size=       1KiB time=00:00:01.42 bitrate=   3.1kbits/s speed=0.012x elapsed=0:01:58.72    \nframe=  172 fps=1.4 q=19.0 size=       1KiB time=00:00:01.42 bitrate=   3.1kbits/s speed=0.0119x elapsed=0:01:59.54    \nframe=  172 fps=1.4 q=19.0 size=       1KiB time=00:00:01.42 bitrate=   3.1kbits/s speed=0.0118x elapsed=0:02:00.26    \nframe=  173 fps=1.4 q=16.0 size=       1KiB time=00:00:01.43 bitrate=   3.1kbits/s speed=0.0118x elapsed=0:02:00.99    \nframe=  174 fps=1.4 q=19.0 size=       1KiB time=00:00:01.43 bitrate=   3.1kbits/s speed=0.0118x elapsed=0:02:01.57    \nframe=  176 fps=1.4 q=19.0 size=       1KiB time=00:00:01.45 bitrate=   3.1kbits/s speed=0.0119x elapsed=0:02:02.16    \nframe=  181 fps=1.5 q=16.0 size=       1KiB time=00:00:01.49 bitrate=   3.0kbits/s speed=0.0121x elapsed=0:02:02.81    \nframe=  183 fps=1.5 q=19.0 size=       1KiB time=00:00:01.50 bitrate=   3.0kbits/s speed=0.0122x elapsed=0:02:03.68    \nframe=  186 fps=1.5 q=20.0 size=       1KiB time=00:00:01.53 bitrate=   2.9kbits/s speed=0.0123x elapsed=0:02:04.41    \nframe=  188 fps=1.5 q=20.0 size=       1KiB time=00:00:01.55 bitrate=   2.9kbits/s speed=0.0124x elapsed=0:02:05.23    \nframe=  188 fps=1.5 q=20.0 size=       1KiB time=00:00:01.55 bitrate=   2.9kbits/s speed=0.0124x elapsed=0:02:06.01    \nframe=  188 fps=1.5 q=20.0 size=       1KiB time=00:00:01.55 bitrate=   2.9kbits/s speed=0.0123x elapsed=0:02:06.74    \nframe=  188 fps=1.5 q=20.0 size=       1KiB time=00:00:01.55 bitrate=   2.9kbits/s speed=0.0122x elapsed=0:02:07.26    \nframe=  190 fps=1.5 q=20.0 size=       1KiB time=00:00:01.57 bitrate=   2.8kbits/s speed=0.0123x elapsed=0:02:07.82    \nframe=  194 fps=1.5 q=19.0 size=       1KiB time=00:00:01.59 bitrate=   2.8kbits/s speed=0.0124x elapsed=0:02:08.59    \nframe=  197 fps=1.5 q=16.0 size=       1KiB time=00:00:01.62 bitrate=   2.8kbits/s speed=0.0126x elapsed=0:02:09.42    \nframe=  199 fps=1.5 q=18.0 size=       1KiB time=00:00:01.64 bitrate=   2.7kbits/s speed=0.0126x elapsed=0:02:10.16    \nframe=  203 fps=1.6 q=18.0 size=       1KiB time=00:00:01.66 bitrate=   2.7kbits/s speed=0.0127x elapsed=0:02:10.96    \nframe=  204 fps=1.5 q=19.0 size=       1KiB time=00:00:01.69 bitrate=   2.6kbits/s speed=0.0128x elapsed=0:02:11.79    \nframe=  204 fps=1.5 q=19.0 size=       1KiB time=00:00:01.69 bitrate=   2.6kbits/s speed=0.0128x elapsed=0:02:12.58    \nframe=  204 fps=1.5 q=19.0 size=       1KiB time=00:00:01.69 bitrate=   2.6kbits/s speed=0.0127x elapsed=0:02:13.24    \nframe=  204 fps=1.5 q=19.0 size=       1KiB time=00:00:01.69 bitrate=   2.6kbits/s speed=0.0126x elapsed=0:02:13.82    \nframe=  205 fps=1.5 q=16.0 size=       1KiB time=00:00:01.70 bitrate=   2.6kbits/s speed=0.0126x elapsed=0:02:14.44    \nframe=  205 fps=1.5 q=16.0 size=       1KiB time=00:00:01.70 bitrate=   2.6kbits/s speed=0.0126x elapsed=0:02:15.00    \nframe=  206 fps=1.5 q=19.0 size=       1KiB time=00:00:01.70 bitrate=   2.6kbits/s speed=0.0126x elapsed=0:02:15.54    \nframe=  207 fps=1.5 q=18.0 size=       1KiB time=00:00:01.71 bitrate=   2.6kbits/s speed=0.0126x elapsed=0:02:16.09    \nframe=  208 fps=1.5 q=19.0 size=       1KiB time=00:00:01.72 bitrate=   2.6kbits/s speed=0.0126x elapsed=0:02:16.62    \nframe=  210 fps=1.5 q=18.0 size=       1KiB time=00:00:01.73 bitrate=   2.6kbits/s speed=0.0126x elapsed=0:02:17.16    \nframe=  210 fps=1.5 q=18.0 size=       1KiB time=00:00:01.74 bitrate=   2.6kbits/s speed=0.0126x elapsed=0:02:17.69    \nframe=  213 fps=1.5 q=15.0 size=       1KiB time=00:00:01.76 bitrate=   2.5kbits/s speed=0.0128x elapsed=0:02:18.23    \nframe=  214 fps=1.5 q=19.0 size=       1KiB time=00:00:01.76 bitrate=   2.5kbits/s speed=0.0127x elapsed=0:02:18.76    \nframe=  214 fps=1.5 q=19.0 size=       1KiB time=00:00:01.77 bitrate=   2.5kbits/s speed=0.0127x elapsed=0:02:19.29    \nframe=  217 fps=1.6 q=11.0 size=       1KiB time=00:00:01.80 bitrate=   2.5kbits/s speed=0.0129x elapsed=0:02:19.83    \nframe=  218 fps=1.6 q=19.0 size=       1KiB time=00:00:01.80 bitrate=   2.5kbits/s speed=0.0129x elapsed=0:02:20.36    \nframe=  220 fps=1.6 q=19.0 size=       1KiB time=00:00:01.82 bitrate=   2.5kbits/s speed=0.013x elapsed=0:02:20.88    \nframe=  220 fps=1.6 q=19.0 size=       1KiB time=00:00:01.82 bitrate=   2.5kbits/s speed=0.0129x elapsed=0:02:21.42    \nframe=  220 fps=1.5 q=19.0 size=       1KiB time=00:00:01.82 bitrate=   2.5kbits/s speed=0.0129x elapsed=0:02:21.96    \nframe=  222 fps=1.6 q=19.0 size=       1KiB time=00:00:01.84 bitrate=   2.4kbits/s speed=0.0129x elapsed=0:02:22.48    \nframe=  222 fps=1.6 q=19.0 size=       1KiB time=00:00:01.84 bitrate=   2.4kbits/s speed=0.0129x elapsed=0:02:23.01    \nframe=  224 fps=1.6 q=20.0 size=       1KiB time=00:00:01.85 bitrate=   2.4kbits/s speed=0.0129x elapsed=0:02:23.54    \nframe=  225 fps=1.6 q=2.0 size=       1KiB time=00:00:01.86 bitrate=   2.4kbits/s speed=0.013x elapsed=0:02:24.06    \nframe=  226 fps=1.6 q=19.0 size=       1KiB time=00:00:01.87 bitrate=   2.4kbits/s speed=0.013x elapsed=0:02:24.59    \nframe=  229 fps=1.6 q=16.0 size=       1KiB time=00:00:01.90 bitrate=   2.4kbits/s speed=0.0131x elapsed=0:02:25.11    \nframe=  229 fps=1.6 q=16.0 size=       1KiB time=00:00:01.90 bitrate=   2.4kbits/s speed=0.013x elapsed=0:02:25.66    \nframe=  230 fps=1.6 q=19.0 size=       1KiB time=00:00:01.90 bitrate=   2.3kbits/s speed=0.0131x elapsed=0:02:26.20    \nframe=  231 fps=1.6 q=18.0 size=       1KiB time=00:00:01.91 bitrate=   2.3kbits/s speed=0.0131x elapsed=0:02:26.73    \nframe=  233 fps=1.6 q=12.0 size=       1KiB time=00:00:01.93 bitrate=   2.3kbits/s speed=0.0131x elapsed=0:02:27.28    \nframe=  234 fps=1.6 q=20.0 size=       1KiB time=00:00:01.94 bitrate=   2.3kbits/s speed=0.0131x elapsed=0:02:27.82    \nframe=  236 fps=1.6 q=20.0 size=       1KiB time=00:00:01.95 bitrate=   2.3kbits/s speed=0.0132x elapsed=0:02:28.35    \nframe=  236 fps=1.6 q=20.0 size=       1KiB time=00:00:01.95 bitrate=   2.3kbits/s speed=0.0132x elapsed=0:02:28.88    \nframe=  236 fps=1.6 q=20.0 size=       1KiB time=00:00:01.95 bitrate=   2.3kbits/s speed=0.0131x elapsed=0:02:29.42    \nframe=  236 fps=1.6 q=20.0 size=       1KiB time=00:00:01.95 bitrate=   2.3kbits/s speed=0.0131x elapsed=0:02:29.95    \nframe=  236 fps=1.6 q=20.0 size=       1KiB time=00:00:01.95 bitrate=   2.3kbits/s speed=0.013x elapsed=0:02:30.48    \nframe=  236 fps=1.6 q=20.0 size=       1KiB time=00:00:01.95 bitrate=   2.3kbits/s speed=0.013x elapsed=0:02:31.00    \nframe=  236 fps=1.6 q=20.0 size=       1KiB time=00:00:01.95 bitrate=   2.3kbits/s speed=0.0129x elapsed=0:02:31.53    \nframe=  236 fps=1.6 q=20.0 size=       1KiB time=00:00:01.95 bitrate=   2.3kbits/s speed=0.0129x elapsed=0:02:32.06    \nframe=  237 fps=1.6 q=16.0 size=       1KiB time=00:00:01.96 bitrate=   2.3kbits/s speed=0.0129x elapsed=0:02:32.60    \nframe=  238 fps=1.6 q=20.0 size=       1KiB time=00:00:01.97 bitrate=   2.3kbits/s speed=0.0129x elapsed=0:02:33.16    \nframe=  238 fps=1.5 q=20.0 size=       1KiB time=00:00:01.97 bitrate=   2.3kbits/s speed=0.0128x elapsed=0:02:33.71    \nframe=  239 fps=1.5 q=19.0 size=       1KiB time=00:00:01.98 bitrate=   2.3kbits/s speed=0.0129x elapsed=0:02:34.28    \nframe=  241 fps=1.6 q=3.0 size=       1KiB time=00:00:02.00 bitrate=   2.2kbits/s speed=0.0129x elapsed=0:02:34.81    \nframe=  242 fps=1.6 q=19.0 size=       1KiB time=00:00:02.00 bitrate=   2.2kbits/s speed=0.0129x elapsed=0:02:35.36    \nframe=  244 fps=1.6 q=19.0 size=       1KiB time=00:00:02.02 bitrate=   2.2kbits/s speed=0.013x elapsed=0:02:35.92    \nframe=  245 fps=1.6 q=16.0 size=       1KiB time=00:00:02.03 bitrate=   2.2kbits/s speed=0.013x elapsed=0:02:36.45    \nframe=  246 fps=1.6 q=20.0 size=       1KiB time=00:00:02.04 bitrate=   2.2kbits/s speed=0.013x elapsed=0:02:36.98    \nframe=  247 fps=1.6 q=18.0 size=       1KiB time=00:00:02.05 bitrate=   2.2kbits/s speed=0.013x elapsed=0:02:37.51    \nframe=  249 fps=1.6 q=12.0 size=       1KiB time=00:00:02.06 bitrate=   2.2kbits/s speed=0.0131x elapsed=0:02:38.05    \nframe=  251 fps=1.6 q=19.0 size=       1KiB time=00:00:02.08 bitrate=   2.2kbits/s speed=0.0131x elapsed=0:02:38.58    \nframe=  252 fps=1.6 q=20.0 size=       1KiB time=00:00:02.09 bitrate=   2.1kbits/s speed=0.0131x elapsed=0:02:39.11    \nframe=  252 fps=1.6 q=20.0 size=       1KiB time=00:00:02.09 bitrate=   2.1kbits/s speed=0.0131x elapsed=0:02:39.66    \nframe=  252 fps=1.6 q=20.0 size=       1KiB time=00:00:02.09 bitrate=   2.1kbits/s speed=0.0131x elapsed=0:02:40.21    \nframe=  252 fps=1.6 q=20.0 size=       1KiB time=00:00:02.09 bitrate=   2.1kbits/s speed=0.013x elapsed=0:02:40.77    \nframe=  252 fps=1.6 q=20.0 size=       1KiB time=00:00:02.09 bitrate=   2.1kbits/s speed=0.013x elapsed=0:02:41.29    \nframe=  253 fps=1.6 q=17.0 size=       1KiB time=00:00:02.10 bitrate=   2.1kbits/s speed=0.013x elapsed=0:02:41.83    \nframe=  254 fps=1.6 q=20.0 size=       1KiB time=00:00:02.10 bitrate=   2.1kbits/s speed=0.013x elapsed=0:02:42.37    \nframe=  256 fps=1.6 q=20.0 size=       1KiB time=00:00:02.12 bitrate=   2.1kbits/s speed=0.013x elapsed=0:02:42.91    \nframe=  258 fps=1.6 q=19.0 size=       1KiB time=00:00:02.14 bitrate=   2.1kbits/s speed=0.0131x elapsed=0:02:43.46    \nframe=  258 fps=1.6 q=19.0 size=       1KiB time=00:00:02.14 bitrate=   2.1kbits/s speed=0.0131x elapsed=0:02:43.99    \nframe=  260 fps=1.6 q=19.0 size=       1KiB time=00:00:02.15 bitrate=   2.1kbits/s speed=0.0131x elapsed=0:02:44.53    \nframe=  261 fps=1.6 q=16.0 size=       1KiB time=00:00:02.16 bitrate=   2.1kbits/s speed=0.0131x elapsed=0:02:45.07    \nframe=  262 fps=1.6 q=19.0 size=       1KiB time=00:00:02.17 bitrate=   2.1kbits/s speed=0.0131x elapsed=0:02:45.61    \nframe=  264 fps=1.6 q=19.0 size=       1KiB time=00:00:02.19 bitrate=   2.0kbits/s speed=0.0132x elapsed=0:02:46.16    \nframe=  267 fps=1.6 q=19.0 size=       1KiB time=00:00:02.20 bitrate=   2.0kbits/s speed=0.0132x elapsed=0:02:46.72    \nframe=  268 fps=1.6 q=20.0 size=       1KiB time=00:00:02.22 bitrate=   2.0kbits/s speed=0.0133x elapsed=0:02:47.25    \nframe=  268 fps=1.6 q=20.0 size=       1KiB time=00:00:02.22 bitrate=   2.0kbits/s speed=0.0133x elapsed=0:02:47.78    \nframe=  268 fps=1.6 q=20.0 size=       1KiB time=00:00:02.22 bitrate=   2.0kbits/s speed=0.0132x elapsed=0:02:48.32    \nframe=  268 fps=1.6 q=20.0 size=       1KiB time=00:00:02.22 bitrate=   2.0kbits/s speed=0.0132x elapsed=0:02:48.86    \nframe=  269 fps=1.6 q=17.0 size=       1KiB time=00:00:02.23 bitrate=   2.0kbits/s speed=0.0132x elapsed=0:02:49.41    \nframe=  270 fps=1.6 q=20.0 size=       1KiB time=00:00:02.24 bitrate=   2.0kbits/s speed=0.0132x elapsed=0:02:49.94    \nframe=  270 fps=1.6 q=20.0 size=       1KiB time=00:00:02.24 bitrate=   2.0kbits/s speed=0.0131x elapsed=0:02:50.49    \nframe=  271 fps=1.6 q=19.0 size=       1KiB time=00:00:02.25 bitrate=   2.0kbits/s speed=0.0132x elapsed=0:02:51.04    \nframe=  273 fps=1.6 q=3.0 size=       1KiB time=00:00:02.26 bitrate=   2.0kbits/s speed=0.0132x elapsed=0:02:51.59    \nframe=  274 fps=1.6 q=19.0 size=       1KiB time=00:00:02.27 bitrate=   2.0kbits/s speed=0.0132x elapsed=0:02:52.15    \nframe=  276 fps=1.6 q=19.0 size=       1KiB time=00:00:02.29 bitrate=   2.0kbits/s speed=0.0133x elapsed=0:02:52.71    \nframe=  277 fps=1.6 q=16.0 size=       1KiB time=00:00:02.30 bitrate=   1.9kbits/s speed=0.0133x elapsed=0:02:53.25    \nframe=  279 fps=1.6 q=18.0 size=       1KiB time=00:00:02.31 bitrate=   1.9kbits/s speed=0.0133x elapsed=0:02:53.81    \nframe=  281 fps=1.6 q=12.0 size=       1KiB time=00:00:02.32 bitrate=   1.9kbits/s speed=0.0133x elapsed=0:02:54.37    \nframe=  283 fps=1.6 q=18.0 size=       1KiB time=00:00:02.35 bitrate=   1.9kbits/s speed=0.0134x elapsed=0:02:54.91    \nframe=  284 fps=1.6 q=16.0 size=       1KiB time=00:00:02.35 bitrate=   1.9kbits/s speed=0.0134x elapsed=0:02:55.43    \nframe=  287 fps=1.6 q=16.0 size=       1KiB time=00:00:02.38 bitrate=   1.9kbits/s speed=0.0135x elapsed=0:02:55.98    \nframe=  288 fps=1.6 q=18.0 size=       1KiB time=00:00:02.39 bitrate=   1.9kbits/s speed=0.0135x elapsed=0:02:56.52    \nframe=  290 fps=1.6 q=20.0 size=       1KiB time=00:00:02.40 bitrate=   1.9kbits/s speed=0.0136x elapsed=0:02:57.07    \nframe=  292 fps=1.6 q=20.0 size=       1KiB time=00:00:02.42 bitrate=   1.8kbits/s speed=0.0137x elapsed=0:02:57.62    \nframe=  293 fps=1.6 q=17.0 size=       1KiB time=00:00:02.43 bitrate=   1.8kbits/s speed=0.0137x elapsed=0:02:58.18    \nframe=  294 fps=1.6 q=20.0 size=       1KiB time=00:00:02.44 bitrate=   1.8kbits/s speed=0.0137x elapsed=0:02:58.71    \nframe=  297 fps=1.7 q=13.0 size=       1KiB time=00:00:02.46 bitrate=   1.8kbits/s speed=0.0138x elapsed=0:02:59.25    \nframe=  297 fps=1.7 q=13.0 size=       1KiB time=00:00:02.46 bitrate=   1.8kbits/s speed=0.0137x elapsed=0:02:59.80    \nframe=  299 fps=1.7 q=19.0 size=       1KiB time=00:00:02.48 bitrate=   1.8kbits/s speed=0.0138x elapsed=0:03:00.36    \nframe=  301 fps=1.7 q=17.0 size=       1KiB time=00:00:02.50 bitrate=   1.8kbits/s speed=0.0138x elapsed=0:03:00.90    \nframe=  302 fps=1.7 q=20.0 size=       1KiB time=00:00:02.50 bitrate=   1.8kbits/s speed=0.0138x elapsed=0:03:01.44    \nframe=  303 fps=1.7 q=19.0 size=       1KiB time=00:00:02.51 bitrate=   1.8kbits/s speed=0.0138x elapsed=0:03:01.98    \nframe=  304 fps=1.7 q=20.0 size=       1KiB time=00:00:02.52 bitrate=   1.8kbits/s speed=0.0138x elapsed=0:03:02.54    \nframe=  306 fps=1.7 q=18.0 size=       1KiB time=00:00:02.54 bitrate=   1.8kbits/s speed=0.0139x elapsed=0:03:03.07    \nframe=  307 fps=1.7 q=17.0 size=       1KiB time=00:00:02.55 bitrate=   1.8kbits/s speed=0.0139x elapsed=0:03:03.61    \nframe=  309 fps=1.7 q=15.0 size=       1KiB time=00:00:02.56 bitrate=   1.7kbits/s speed=0.0139x elapsed=0:03:04.15    \nframe=  310 fps=1.7 q=19.0 size=       1KiB time=00:00:02.57 bitrate=   1.7kbits/s speed=0.0139x elapsed=0:03:04.69    \nframe=  312 fps=1.7 q=19.0 size=       1KiB time=00:00:02.59 bitrate=   1.7kbits/s speed=0.014x elapsed=0:03:05.21    \nframe=  313 fps=1.7 q=12.0 size=       1KiB time=00:00:02.60 bitrate=   1.7kbits/s speed=0.014x elapsed=0:03:05.75    \nframe=  315 fps=1.7 q=18.0 size=       1KiB time=00:00:02.61 bitrate=   1.7kbits/s speed=0.014x elapsed=0:03:06.28    \nframe=  316 fps=1.7 q=19.0 size=       1KiB time=00:00:02.62 bitrate=   1.7kbits/s speed=0.0141x elapsed=0:03:06.82    \nframe=  316 fps=1.7 q=19.0 size=       1KiB time=00:00:02.62 bitrate=   1.7kbits/s speed=0.014x elapsed=0:03:07.36    \nframe=  316 fps=1.7 q=19.0 size=       1KiB time=00:00:02.62 bitrate=   1.7kbits/s speed=0.014x elapsed=0:03:07.90    \nframe=  316 fps=1.7 q=19.0 size=       1KiB time=00:00:02.62 bitrate=   1.7kbits/s speed=0.0139x elapsed=0:03:08.44    \nframe=  316 fps=1.7 q=19.0 size=       1KiB time=00:00:02.62 bitrate=   1.7kbits/s speed=0.0139x elapsed=0:03:08.98    \nframe=  317 fps=1.7 q=16.0 size=       1KiB time=00:00:02.63 bitrate=   1.7kbits/s speed=0.0139x elapsed=0:03:09.51    \nframe=  318 fps=1.7 q=19.0 size=       1KiB time=00:00:02.64 bitrate=   1.7kbits/s speed=0.0139x elapsed=0:03:10.06    \nframe=  319 fps=1.7 q=18.0 size=       1KiB time=00:00:02.64 bitrate=   1.7kbits/s speed=0.0139x elapsed=0:03:10.60    \nframe=  320 fps=1.7 q=19.0 size=       1KiB time=00:00:02.65 bitrate=   1.7kbits/s speed=0.0139x elapsed=0:03:11.14    \nframe=  322 fps=1.7 q=20.0 size=       1KiB time=00:00:02.67 bitrate=   1.7kbits/s speed=0.014x elapsed=0:03:11.69    \nframe=  324 fps=1.7 q=21.0 size=       1KiB time=00:00:02.69 bitrate=   1.7kbits/s speed=0.014x elapsed=0:03:12.23    \nframe=  326 fps=1.7 q=22.0 size=       1KiB time=00:00:02.70 bitrate=   1.7kbits/s speed=0.014x elapsed=0:03:12.76    \nframe=  327 fps=1.7 q=20.0 size=       1KiB time=00:00:02.71 bitrate=   1.6kbits/s speed=0.0141x elapsed=0:03:13.29    \nframe=  330 fps=1.7 q=23.0 size=       1KiB time=00:00:02.74 bitrate=   1.6kbits/s speed=0.0141x elapsed=0:03:13.82    \nframe=  332 fps=1.7 q=23.0 size=       1KiB time=00:00:02.75 bitrate=   1.6kbits/s speed=0.0142x elapsed=0:03:14.36    \nframe=  332 fps=1.7 q=23.0 size=       1KiB time=00:00:02.75 bitrate=   1.6kbits/s speed=0.0142x elapsed=0:03:14.89    \nframe=  333 fps=1.7 q=18.0 size=       1KiB time=00:00:02.76 bitrate=   1.6kbits/s speed=0.0142x elapsed=0:03:15.42    \nframe=  334 fps=1.7 q=24.0 size=       1KiB time=00:00:02.77 bitrate=   1.6kbits/s speed=0.0142x elapsed=0:03:15.95    \nframe=  335 fps=1.7 q=22.0 size=       1KiB time=00:00:02.78 bitrate=   1.6kbits/s speed=0.0142x elapsed=0:03:16.50    \nframe=  337 fps=1.7 q=1.0 size=       1KiB time=00:00:02.80 bitrate=   1.6kbits/s speed=0.0142x elapsed=0:03:17.05    \nframe=  339 fps=1.7 q=21.0 size=       1KiB time=00:00:02.81 bitrate=   1.6kbits/s speed=0.0143x elapsed=0:03:17.60    \nframe=  341 fps=1.7 q=19.0 size=       1KiB time=00:00:02.83 bitrate=   1.6kbits/s speed=0.0143x elapsed=0:03:18.14    \nframe=  341 fps=1.7 q=19.0 size=       1KiB time=00:00:02.83 bitrate=   1.6kbits/s speed=0.0143x elapsed=0:03:18.69    \nframe=  343 fps=1.7 q=22.0 size=       1KiB time=00:00:02.85 bitrate=   1.6kbits/s speed=0.0143x elapsed=0:03:19.23    \nframe=  345 fps=1.7 q=15.0 size=       1KiB time=00:00:02.86 bitrate=   1.6kbits/s speed=0.0143x elapsed=0:03:19.79    \nframe=  348 fps=1.7 q=23.0 size=       1KiB time=00:00:02.89 bitrate=   1.5kbits/s speed=0.0144x elapsed=0:03:20.33    \nframe=  349 fps=1.7 q=20.0 size=       1KiB time=00:00:02.90 bitrate=   1.5kbits/s speed=0.0144x elapsed=0:03:20.86    \nframe=  350 fps=1.7 q=23.0 size=       1KiB time=00:00:02.90 bitrate=   1.5kbits/s speed=0.0144x elapsed=0:03:21.41    \nframe=  352 fps=1.7 q=23.0 size=       1KiB time=00:00:02.92 bitrate=   1.5kbits/s speed=0.0145x elapsed=0:03:21.94    \nframe=  354 fps=1.7 q=22.0 size=       1KiB time=00:00:02.94 bitrate=   1.5kbits/s speed=0.0145x elapsed=0:03:22.48    \nframe=  358 fps=1.8 q=23.0 size=       1KiB time=00:00:02.96 bitrate=   1.5kbits/s speed=0.0146x elapsed=0:03:23.01    \nframe=  359 fps=1.8 q=22.0 size=       1KiB time=00:00:02.98 bitrate=   1.5kbits/s speed=0.0147x elapsed=0:03:23.54    \nframe=  361 fps=1.8 q=14.0 size=       1KiB time=00:00:03.00 bitrate=   1.5kbits/s speed=0.0147x elapsed=0:03:24.08    \nframe=  363 fps=1.8 q=22.0 size=       1KiB time=00:00:03.01 bitrate=   1.5kbits/s speed=0.0147x elapsed=0:03:24.64    \nframe=  365 fps=1.8 q=19.0 size=       1KiB time=00:00:03.03 bitrate=   1.5kbits/s speed=0.0148x elapsed=0:03:25.21    \nframe=  367 fps=1.8 q=20.0 size=       1KiB time=00:00:03.05 bitrate=   1.5kbits/s speed=0.0148x elapsed=0:03:25.76    \nframe=  370 fps=1.8 q=23.0 size=       1KiB time=00:00:03.07 bitrate=   1.5kbits/s speed=0.0149x elapsed=0:03:26.28    \nframe=  372 fps=1.8 q=23.0 size=       1KiB time=00:00:03.09 bitrate=   1.4kbits/s speed=0.0149x elapsed=0:03:26.83    \nframe=  373 fps=1.8 q=20.0 size=       1KiB time=00:00:03.10 bitrate=   1.4kbits/s speed=0.0149x elapsed=0:03:27.38    \nframe=  375 fps=1.8 q=22.0 size=       1KiB time=00:00:03.11 bitrate=   1.4kbits/s speed=0.015x elapsed=0:03:27.91    \nframe=  377 fps=1.8 q=15.0 size=       1KiB time=00:00:03.13 bitrate=   1.4kbits/s speed=0.015x elapsed=0:03:28.46    \nframe=  380 fps=1.8 q=23.0 size=       1KiB time=00:00:03.15 bitrate=   1.4kbits/s speed=0.0151x elapsed=0:03:29.00    \nframe=  381 fps=1.8 q=20.0 size=       1KiB time=00:00:03.16 bitrate=   1.4kbits/s speed=0.0151x elapsed=0:03:29.52    \nframe=  382 fps=1.8 q=23.0 size=       1KiB time=00:00:03.17 bitrate=   1.4kbits/s speed=0.0151x elapsed=0:03:30.07    \nframe=  384 fps=1.8 q=23.0 size=       1KiB time=00:00:03.18 bitrate=   1.4kbits/s speed=0.0151x elapsed=0:03:30.61    \nframe=  386 fps=1.8 q=22.0 size=       1KiB time=00:00:03.20 bitrate=   1.4kbits/s speed=0.0152x elapsed=0:03:31.15    \nframe=  388 fps=1.8 q=22.0 size=       1KiB time=00:00:03.22 bitrate=   1.4kbits/s speed=0.0152x elapsed=0:03:31.69    \nframe=  389 fps=1.8 q=18.0 size=       1KiB time=00:00:03.23 bitrate=   1.4kbits/s speed=0.0152x elapsed=0:03:32.23    \nframe=  390 fps=1.8 q=23.0 size=       1KiB time=00:00:03.24 bitrate=   1.4kbits/s speed=0.0152x elapsed=0:03:32.78    \nframe=  394 fps=1.8 q=24.0 size=       1KiB time=00:00:03.27 bitrate=   1.4kbits/s speed=0.0154x elapsed=0:03:33.31    \nframe=  396 fps=1.9 q=24.0 size=       1KiB time=00:00:03.29 bitrate=   1.4kbits/s speed=0.0154x elapsed=0:03:33.84    \nframe=  399 fps=1.9 q=15.0 size=       1KiB time=00:00:03.31 bitrate=   1.4kbits/s speed=0.0155x elapsed=0:03:34.38    \nframe=  401 fps=1.9 q=4.0 size=       1KiB time=00:00:03.33 bitrate=   1.3kbits/s speed=0.0155x elapsed=0:03:34.93    \nframe=  402 fps=1.9 q=22.0 size=       1KiB time=00:00:03.34 bitrate=   1.3kbits/s speed=0.0155x elapsed=0:03:35.48    \nframe=  405 fps=1.9 q=19.0 size=       1KiB time=00:00:03.36 bitrate=   1.3kbits/s speed=0.0156x elapsed=0:03:36.02    \nframe=  406 fps=1.9 q=23.0 size=       1KiB time=00:00:03.37 bitrate=   1.3kbits/s speed=0.0156x elapsed=0:03:36.56    \nframe=  408 fps=1.9 q=23.0 size=       1KiB time=00:00:03.39 bitrate=   1.3kbits/s speed=0.0156x elapsed=0:03:37.10    \nframe=  411 fps=1.9 q=22.0 size=       1KiB time=00:00:03.41 bitrate=   1.3kbits/s speed=0.0157x elapsed=0:03:37.64    \nframe=  413 fps=1.9 q=20.0 size=       1KiB time=00:00:03.43 bitrate=   1.3kbits/s speed=0.0157x elapsed=0:03:38.17    \nframe=  414 fps=1.9 q=23.0 size=       1KiB time=00:00:03.44 bitrate=   1.3kbits/s speed=0.0157x elapsed=0:03:38.71    \nframe=  415 fps=1.9 q=22.0 size=       1KiB time=00:00:03.45 bitrate=   1.3kbits/s speed=0.0157x elapsed=0:03:39.24    \nframe=  418 fps=1.9 q=22.0 size=       1KiB time=00:00:03.47 bitrate=   1.3kbits/s speed=0.0158x elapsed=0:03:39.77    \nframe=  420 fps=1.9 q=22.0 size=       1KiB time=00:00:03.49 bitrate=   1.3kbits/s speed=0.0158x elapsed=0:03:40.31    \nframe=  421 fps=1.9 q=18.0 size=       1KiB time=00:00:03.50 bitrate=   1.3kbits/s speed=0.0158x elapsed=0:03:40.85    \nframe=  422 fps=1.9 q=23.0 size=       1KiB time=00:00:03.50 bitrate=   1.3kbits/s speed=0.0158x elapsed=0:03:41.39    \nframe=  423 fps=1.9 q=21.0 size=       1KiB time=00:00:03.51 bitrate=   1.3kbits/s speed=0.0158x elapsed=0:03:41.94    \nframe=  425 fps=1.9 q=14.0 size=       1KiB time=00:00:03.53 bitrate=   1.3kbits/s speed=0.0159x elapsed=0:03:42.48    \nframe=  428 fps=1.9 q=23.0 size=       1KiB time=00:00:03.55 bitrate=   1.3kbits/s speed=0.0159x elapsed=0:03:43.01    \nframe=  428 fps=1.9 q=23.0 size=       1KiB time=00:00:03.55 bitrate=   1.3kbits/s speed=0.0159x elapsed=0:03:43.56    \nframe=  428 fps=1.9 q=23.0 size=       1KiB time=00:00:03.55 bitrate=   1.3kbits/s speed=0.0159x elapsed=0:03:44.10    \nframe=  428 fps=1.9 q=23.0 size=       1KiB time=00:00:03.55 bitrate=   1.3kbits/s speed=0.0158x elapsed=0:03:44.63    \nframe=  429 fps=1.9 q=19.0 size=       1KiB time=00:00:03.56 bitrate=   1.3kbits/s speed=0.0158x elapsed=0:03:45.16    \nframe=  430 fps=1.9 q=24.0 size=       1KiB time=00:00:03.57 bitrate=   1.3kbits/s speed=0.0158x elapsed=0:03:45.69    \nframe=  432 fps=1.9 q=24.0 size=       1KiB time=00:00:03.59 bitrate=   1.2kbits/s speed=0.0159x elapsed=0:03:46.23    \nframe=  435 fps=1.9 q=21.0 size=       1KiB time=00:00:03.61 bitrate=   1.2kbits/s speed=0.0159x elapsed=0:03:46.76    \nframe=  437 fps=1.9 q=19.0 size=       1KiB time=00:00:03.63 bitrate=   1.2kbits/s speed=0.016x elapsed=0:03:47.29    \nframe=  438 fps=1.9 q=23.0 size=       1KiB time=00:00:03.64 bitrate=   1.2kbits/s speed=0.016x elapsed=0:03:47.84    \nframe=  441 fps=1.9 q=14.0 size=       1KiB time=00:00:03.66 bitrate=   1.2kbits/s speed=0.0161x elapsed=0:03:48.38    \nframe=  444 fps=1.9 q=24.0 size=       1KiB time=00:00:03.69 bitrate=   1.2kbits/s speed=0.0161x elapsed=0:03:48.90    \nframe=  444 fps=1.9 q=24.0 size=       1KiB time=00:00:03.69 bitrate=   1.2kbits/s speed=0.0161x elapsed=0:03:49.44    \nframe=  444 fps=1.9 q=24.0 size=       1KiB time=00:00:03.69 bitrate=   1.2kbits/s speed=0.0161x elapsed=0:03:49.98    \nframe=  444 fps=1.9 q=24.0 size=       1KiB time=00:00:03.69 bitrate=   1.2kbits/s speed=0.016x elapsed=0:03:50.51    \nframe=  445 fps=1.9 q=20.0 size=       1KiB time=00:00:03.70 bitrate=   1.2kbits/s speed=0.016x elapsed=0:03:51.04    \nframe=  446 fps=1.9 q=24.0 size=       1KiB time=00:00:03.70 bitrate=   1.2kbits/s speed=0.016x elapsed=0:03:51.58    \nframe=  447 fps=1.9 q=23.0 size=       1KiB time=00:00:03.71 bitrate=   1.2kbits/s speed=0.016x elapsed=0:03:52.11    \nframe=  449 fps=1.9 q=3.0 size=       1KiB time=00:00:03.73 bitrate=   1.2kbits/s speed=0.016x elapsed=0:03:52.65    \nframe=  451 fps=1.9 q=22.0 size=       1KiB time=00:00:03.75 bitrate=   1.2kbits/s speed=0.0161x elapsed=0:03:53.20    \nframe=  453 fps=1.9 q=20.0 size=       1KiB time=00:00:03.76 bitrate=   1.2kbits/s speed=0.0161x elapsed=0:03:53.73    \nframe=  454 fps=1.9 q=23.0 size=       1KiB time=00:00:03.77 bitrate=   1.2kbits/s speed=0.0161x elapsed=0:03:54.27    \nframe=  455 fps=1.9 q=22.0 size=       1KiB time=00:00:03.78 bitrate=   1.2kbits/s speed=0.0161x elapsed=0:03:54.80    \nframe=  458 fps=1.9 q=24.0 size=       1KiB time=00:00:03.80 bitrate=   1.2kbits/s speed=0.0161x elapsed=0:03:55.33    \nframe=  460 fps=2.0 q=24.0 size=       1KiB time=00:00:03.82 bitrate=   1.2kbits/s speed=0.0162x elapsed=0:03:55.87    \nframe=  460 fps=1.9 q=24.0 size=       1KiB time=00:00:03.82 bitrate=   1.2kbits/s speed=0.0162x elapsed=0:03:56.41    \nframe=  461 fps=1.9 q=20.0 size=       1KiB time=00:00:03.83 bitrate=   1.2kbits/s speed=0.0162x elapsed=0:03:56.93    \nframe=  462 fps=1.9 q=24.0 size=       1KiB time=00:00:03.84 bitrate=   1.2kbits/s speed=0.0162x elapsed=0:03:57.46    \nframe=  463 fps=1.9 q=23.0 size=       1KiB time=00:00:03.85 bitrate=   1.2kbits/s speed=0.0162x elapsed=0:03:58.00    \nframe=  464 fps=1.9 q=24.0 size=       1KiB time=00:00:03.85 bitrate=   1.2kbits/s speed=0.0162x elapsed=0:03:58.54    \nframe=  466 fps=1.9 q=23.0 size=       1KiB time=00:00:03.87 bitrate=   1.2kbits/s speed=0.0162x elapsed=0:03:59.08    \nframe=  468 fps=2.0 q=23.0 size=       1KiB time=00:00:03.89 bitrate=   1.2kbits/s speed=0.0162x elapsed=0:03:59.62    \nframe=  469 fps=2.0 q=20.0 size=       1KiB time=00:00:03.90 bitrate=   1.1kbits/s speed=0.0162x elapsed=0:04:00.18    \nframe=  470 fps=2.0 q=24.0 size=       1KiB time=00:00:03.90 bitrate=   1.1kbits/s speed=0.0162x elapsed=0:04:00.72    \nframe=  471 fps=2.0 q=22.0 size=       1KiB time=00:00:03.91 bitrate=   1.1kbits/s speed=0.0162x elapsed=0:04:01.27    \nframe=  473 fps=2.0 q=15.0 size=       1KiB time=00:00:03.93 bitrate=   1.1kbits/s speed=0.0163x elapsed=0:04:01.81    \nframe=  476 fps=2.0 q=24.0 size=       1KiB time=00:00:03.95 bitrate=   1.1kbits/s speed=0.0163x elapsed=0:04:02.36    \nframe=  476 fps=2.0 q=24.0 size=       1KiB time=00:00:03.95 bitrate=   1.1kbits/s speed=0.0163x elapsed=0:04:02.90    \nframe=  476 fps=2.0 q=24.0 size=       1KiB time=00:00:03.95 bitrate=   1.1kbits/s speed=0.0163x elapsed=0:04:03.43    \nframe=  476 fps=2.0 q=24.0 size=       1KiB time=00:00:03.95 bitrate=   1.1kbits/s speed=0.0162x elapsed=0:04:03.97    \nframe=  476 fps=1.9 q=24.0 size=       1KiB time=00:00:03.95 bitrate=   1.1kbits/s speed=0.0162x elapsed=0:04:04.50    \nframe=  477 fps=1.9 q=20.0 size=       1KiB time=00:00:03.96 bitrate=   1.1kbits/s speed=0.0162x elapsed=0:04:05.02    \nframe=  478 fps=1.9 q=24.0 size=       1KiB time=00:00:03.97 bitrate=   1.1kbits/s speed=0.0162x elapsed=0:04:05.55    \nframe=  479 fps=1.9 q=23.0 size=       1KiB time=00:00:03.98 bitrate=   1.1kbits/s speed=0.0162x elapsed=0:04:06.10    \nframe=  481 fps=1.9 q=4.0 size=       1KiB time=00:00:04.00 bitrate=   1.1kbits/s speed=0.0162x elapsed=0:04:06.67    \nframe=  483 fps=2.0 q=22.0 size=       1KiB time=00:00:04.01 bitrate=   1.1kbits/s speed=0.0162x elapsed=0:04:07.21    \nframe=  485 fps=2.0 q=19.0 size=       1KiB time=00:00:04.03 bitrate=   1.1kbits/s speed=0.0163x elapsed=0:04:07.76    \nframe=  487 fps=2.0 q=22.0 size=       1KiB time=00:00:04.05 bitrate=   1.1kbits/s speed=0.0163x elapsed=0:04:08.31    \nframe=  489 fps=2.0 q=14.0 size=       1KiB time=00:00:04.06 bitrate=   1.1kbits/s speed=0.0163x elapsed=0:04:08.89    \nframe=  492 fps=2.0 q=25.0 size=       1KiB time=00:00:04.09 bitrate=   1.1kbits/s speed=0.0164x elapsed=0:04:09.43    \nframe=  492 fps=2.0 q=25.0 size=       1KiB time=00:00:04.09 bitrate=   1.1kbits/s speed=0.0164x elapsed=0:04:09.98    \nframe=  492 fps=2.0 q=25.0 size=       1KiB time=00:00:04.09 bitrate=   1.1kbits/s speed=0.0163x elapsed=0:04:10.54    \nframe=  492 fps=2.0 q=25.0 size=       1KiB time=00:00:04.09 bitrate=   1.1kbits/s speed=0.0163x elapsed=0:04:11.08    \nframe=  492 fps=2.0 q=25.0 size=       1KiB time=00:00:04.09 bitrate=   1.1kbits/s speed=0.0163x elapsed=0:04:11.62    \nframe=  492 fps=2.0 q=25.0 size=       1KiB time=00:00:04.09 bitrate=   1.1kbits/s speed=0.0162x elapsed=0:04:12.15    \nframe=  493 fps=2.0 q=20.0 size=       1KiB time=00:00:04.10 bitrate=   1.1kbits/s speed=0.0162x elapsed=0:04:12.67    \nframe=  494 fps=2.0 q=25.0 size=       1KiB time=00:00:04.10 bitrate=   1.1kbits/s speed=0.0162x elapsed=0:04:13.23    \nframe=  495 fps=2.0 q=23.0 size=       1KiB time=00:00:04.11 bitrate=   1.1kbits/s speed=0.0162x elapsed=0:04:13.76    \nframe=  497 fps=2.0 q=3.0 size=       1KiB time=00:00:04.13 bitrate=   1.1kbits/s speed=0.0163x elapsed=0:04:14.30    \nframe=  498 fps=2.0 q=24.0 size=       1KiB time=00:00:04.14 bitrate=   1.1kbits/s speed=0.0163x elapsed=0:04:14.84    \nframe=  501 fps=2.0 q=20.0 size=       1KiB time=00:00:04.16 bitrate=   1.1kbits/s speed=0.0163x elapsed=0:04:15.39    \nframe=  502 fps=2.0 q=25.0 size=       1KiB time=00:00:04.17 bitrate=   1.1kbits/s speed=0.0163x elapsed=0:04:15.96    \nframe=  505 fps=2.0 q=15.0 size=       1KiB time=00:00:04.20 bitrate=   1.1kbits/s speed=0.0164x elapsed=0:04:16.51    \nframe=  509 fps=2.0 q=21.0 size=       1KiB time=00:00:04.23 bitrate=   1.1kbits/s speed=0.0165x elapsed=0:04:17.06    \nframe=  513 fps=2.0 q=3.0 size=       1KiB time=00:00:04.26 bitrate=   1.0kbits/s speed=0.0166x elapsed=0:04:17.59    \nframe=  513 fps=2.0 q=3.0 size=       1KiB time=00:00:04.26 bitrate=   1.0kbits/s speed=0.0165x elapsed=0:04:18.13    \nframe=  513 fps=2.0 q=3.0 size=       1KiB time=00:00:04.26 bitrate=   1.0kbits/s speed=0.0165x elapsed=0:04:18.67    \nframe=  513 fps=2.0 q=3.0 size=       1KiB time=00:00:04.26 bitrate=   1.0kbits/s speed=0.0165x elapsed=0:04:19.20    \nframe=  513 fps=2.0 q=3.0 size=       1KiB time=00:00:04.26 bitrate=   1.0kbits/s speed=0.0164x elapsed=0:04:19.73    \nframe=  513 fps=2.0 q=3.0 size=       1KiB time=00:00:04.26 bitrate=   1.0kbits/s speed=0.0164x elapsed=0:04:20.28    \nframe=  513 fps=2.0 q=3.0 size=       1KiB time=00:00:04.26 bitrate=   1.0kbits/s speed=0.0164x elapsed=0:04:20.81    \nframe=  513 fps=2.0 q=3.0 size=       1KiB time=00:00:04.26 bitrate=   1.0kbits/s speed=0.0163x elapsed=0:04:21.37    \nframe=  517 fps=2.0 q=21.0 size=       1KiB time=00:00:04.28 bitrate=   1.0kbits/s speed=0.0164x elapsed=0:04:21.90    \nframe=  517 fps=2.0 q=21.0 size=       1KiB time=00:00:04.30 bitrate=   1.0kbits/s speed=0.0164x elapsed=0:04:22.44    \nframe=  521 fps=2.0 q=16.0 size=       1KiB time=00:00:04.33 bitrate=   1.0kbits/s speed=0.0165x elapsed=0:04:22.98    \nframe=  521 fps=2.0 q=16.0 size=       1KiB time=00:00:04.33 bitrate=   1.0kbits/s speed=0.0164x elapsed=0:04:23.53    \nframe=  525 fps=2.0 q=21.0 size=       1KiB time=00:00:04.36 bitrate=   1.0kbits/s speed=0.0165x elapsed=0:04:24.08    \nframe=  529 fps=2.0 q=4.0 size=       1KiB time=00:00:04.40 bitrate=   1.0kbits/s speed=0.0166x elapsed=0:04:24.62    \nframe=  529 fps=2.0 q=4.0 size=       1KiB time=00:00:04.40 bitrate=   1.0kbits/s speed=0.0166x elapsed=0:04:25.15    \nframe=  529 fps=2.0 q=4.0 size=       1KiB time=00:00:04.40 bitrate=   1.0kbits/s speed=0.0166x elapsed=0:04:25.67    \nframe=  529 fps=2.0 q=4.0 size=       1KiB time=00:00:04.40 bitrate=   1.0kbits/s speed=0.0165x elapsed=0:04:26.22    \nframe=  529 fps=2.0 q=4.0 size=       1KiB time=00:00:04.40 bitrate=   1.0kbits/s speed=0.0165x elapsed=0:04:26.75    \nframe=  529 fps=2.0 q=4.0 size=       1KiB time=00:00:04.40 bitrate=   1.0kbits/s speed=0.0165x elapsed=0:04:27.28    \nframe=  529 fps=2.0 q=4.0 size=       1KiB time=00:00:04.40 bitrate=   1.0kbits/s speed=0.0164x elapsed=0:04:27.82    \nframe=  533 fps=2.0 q=20.0 size=       1KiB time=00:00:04.43 bitrate=   1.0kbits/s speed=0.0165x elapsed=0:04:28.37    \nframe=  535 fps=2.0 q=23.0 size=       1KiB time=00:00:04.45 bitrate=   1.0kbits/s speed=0.0165x elapsed=0:04:28.93    \nframe=  537 fps=2.0 q=15.0 size=       1KiB time=00:00:04.46 bitrate=   1.0kbits/s speed=0.0166x elapsed=0:04:29.46    \nframe=  537 fps=2.0 q=15.0 size=       1KiB time=00:00:04.46 bitrate=   1.0kbits/s speed=0.0165x elapsed=0:04:30.01    \nframe=  541 fps=2.0 q=21.0 size=       1KiB time=00:00:04.50 bitrate=   1.0kbits/s speed=0.0166x elapsed=0:04:30.56    \nframe=  545 fps=2.0 q=4.0 size=       1KiB time=00:00:04.53 bitrate=   1.0kbits/s speed=0.0167x elapsed=0:04:31.09    \nframe=  545 fps=2.0 q=4.0 size=       1KiB time=00:00:04.53 bitrate=   1.0kbits/s speed=0.0167x elapsed=0:04:31.62    \nframe=  545 fps=2.0 q=4.0 size=       1KiB time=00:00:04.53 bitrate=   1.0kbits/s speed=0.0167x elapsed=0:04:32.16    \nframe=  545 fps=2.0 q=4.0 size=       1KiB time=00:00:04.53 bitrate=   1.0kbits/s speed=0.0166x elapsed=0:04:32.70    \nframe=  545 fps=2.0 q=4.0 size=       1KiB time=00:00:04.53 bitrate=   1.0kbits/s speed=0.0166x elapsed=0:04:33.23    \nframe=  545 fps=2.0 q=4.0 size=       1KiB time=00:00:04.53 bitrate=   1.0kbits/s speed=0.0166x elapsed=0:04:33.76    \nframe=  545 fps=2.0 q=4.0 size=       1KiB time=00:00:04.53 bitrate=   1.0kbits/s speed=0.0165x elapsed=0:04:34.30    \nframe=  545 fps=2.0 q=4.0 size=       1KiB time=00:00:04.53 bitrate=   1.0kbits/s speed=0.0165x elapsed=0:04:34.86    \nframe=  547 fps=2.0 q=22.0 size=       1KiB time=00:00:04.55 bitrate=   1.0kbits/s speed=0.0165x elapsed=0:04:35.42    \nframe=  549 fps=2.0 q=20.0 size=       1KiB time=00:00:04.56 bitrate=   1.0kbits/s speed=0.0165x elapsed=0:04:35.96    \nframe=  553 fps=2.0 q=15.0 size=       1KiB time=00:00:04.60 bitrate=   1.0kbits/s speed=0.0166x elapsed=0:04:36.49    \nframe=  553 fps=2.0 q=15.0 size=       1KiB time=00:00:04.60 bitrate=   1.0kbits/s speed=0.0166x elapsed=0:04:37.03    \nframe=  555 fps=2.0 q=23.0 size=       1KiB time=00:00:04.61 bitrate=   1.0kbits/s speed=0.0166x elapsed=0:04:37.57    \nframe=  557 fps=2.0 q=20.0 size=       1KiB time=00:00:04.63 bitrate=   1.0kbits/s speed=0.0167x elapsed=0:04:38.12    \nframe=  561 fps=2.0 q=4.0 size=       1KiB time=00:00:04.66 bitrate=   1.0kbits/s speed=0.0167x elapsed=0:04:38.67    \nframe=  561 fps=2.0 q=4.0 size=       1KiB time=00:00:04.66 bitrate=   1.0kbits/s speed=0.0167x elapsed=0:04:39.22    \nframe=  561 fps=2.0 q=4.0 size=       1KiB time=00:00:04.66 bitrate=   1.0kbits/s speed=0.0167x elapsed=0:04:39.77    \nframe=  561 fps=2.0 q=4.0 size=       1KiB time=00:00:04.66 bitrate=   1.0kbits/s speed=0.0166x elapsed=0:04:40.30    \nframe=  561 fps=2.0 q=4.0 size=       1KiB time=00:00:04.66 bitrate=   1.0kbits/s speed=0.0166x elapsed=0:04:40.84    \nframe=  561 fps=2.0 q=4.0 size=       1KiB time=00:00:04.66 bitrate=   1.0kbits/s speed=0.0166x elapsed=0:04:41.36    \nframe=  561 fps=2.0 q=4.0 size=       1KiB time=00:00:04.66 bitrate=   1.0kbits/s speed=0.0166x elapsed=0:04:41.89    \nframe=  561 fps=2.0 q=4.0 size=       1KiB time=00:00:04.66 bitrate=   1.0kbits/s speed=0.0165x elapsed=0:04:42.42    \nframe=  563 fps=2.0 q=22.0 size=       1KiB time=00:00:04.68 bitrate=   1.0kbits/s speed=0.0166x elapsed=0:04:42.95    \nframe=  565 fps=2.0 q=20.0 size=    5120KiB time=00:00:04.70 bitrate=8924.1kbits/s speed=0.0166x elapsed=0:04:43.48    \nframe=  569 fps=2.0 q=15.0 size=    5120KiB time=00:00:04.73 bitrate=8861.2kbits/s speed=0.0167x elapsed=0:04:44.09    \nframe=  573 fps=2.0 q=20.0 size=    5120KiB time=00:00:04.73 bitrate=8861.2kbits/s speed=0.0166x elapsed=0:04:44.94    \nframe=  577 fps=2.0 q=3.0 size=    5120KiB time=00:00:04.80 bitrate=8738.1kbits/s speed=0.0168x elapsed=0:04:45.74    \nframe=  577 fps=2.0 q=3.0 size=    5120KiB time=00:00:04.80 bitrate=8738.1kbits/s speed=0.0168x elapsed=0:04:46.50    \nframe=  581 fps=2.0 q=19.0 size=    5120KiB time=00:00:04.83 bitrate=8677.9kbits/s speed=0.0168x elapsed=0:04:47.27    \nframe=  585 fps=2.0 q=15.0 size=    5120KiB time=00:00:04.86 bitrate=8618.4kbits/s speed=0.0169x elapsed=0:04:48.00    \nframe=  600 fps=2.1 q=19.0 size=    5120KiB time=00:00:04.91 bitrate=8530.8kbits/s speed=0.017x elapsed=0:04:48.76    \n[out#0/matroska @ 00000162e98993c0] video:5228KiB audio:0KiB subtitle:0KiB other streams:0KiB global headers:0KiB muxing overhead: 0.062757%\nframe=  600 fps=2.1 q=19.0 Lsize=    5232KiB time=00:00:04.99 bitrate=8586.0kbits/s speed=0.0173x elapsed=0:04:48.84    \n",
  "seconds": 290.5361578464508,
  "probe_out": {}
}